75ec39f0faaaff953e2d46b431acc307 *tests/data/fate/matroska-flac-extradata-update.matroska
1828 tests/data/fate/matroska-flac-extradata-update.matroska
#extradata 0:       34, 0x7166090c
#extradata 1:       34, 0x7166090c
#extradata 2:       34, 0x7166090c
#tb 0: 1/1000
#media_type 0: audio
#codec_id 0: flac
#sample_rate 0: 48000
#channel_layout_name 0: 5.1
#tb 1: 1/1000
#media_type 1: audio
#codec_id 1: flac
#sample_rate 1: 48000
#channel_layout_name 1: 5.1(side)
#tb 2: 1/1000
#media_type 2: audio
#codec_id 2: flac
#sample_rate 2: 48000
#channel_layout_name 2: 5.1
0,          0,          0,       85,       26, 0x50f80431
1,          0,          0,       85,       26, 0x50f80431
2,          0,          0,       85,       26, 0x50f80431
0,         85,         85,       85,       26, 0x50d30416
1,         85,         85,       85,       26, 0x50d30416
2,         85,         85,       85,       26, 0x50d30416
0,        171,        171,       85,       26, 0x51ee046f
1,        171,        171,       85,       26, 0x51ee046f
2,        171,        171,       85,       26, 0x51ee046f
0,        256,        256,       85,       26, 0x521d0458
1,        256,        256,       85,       26, 0x521d0458
2,        256,        256,       85,       26, 0x521d0458
0,        341,        341,       85,       26, 0x531c043d
1,        341,        341,       85,       26, 0x531c043d
2,        341,        341,       85,       26, 0x531c043d
0,        427,        427,       85,       26, 0x53cf0442
1,        427,        427,       85,       26, 0x53cf0442
2,        427,        427,       85,       26, 0x53cf0442
0,        512,        512,       85,       26, 0x536a0473
1,        512,        512,       85,       26, 0x536a0473
2,        512,        512,       85,       26, 0x536a0473
0,        597,        597,       85,       26, 0x5321046c
1,        597,        597,       85,       26, 0x5321046c
2,        597,        597,       85,       26, 0x5321046c
